PathFileType	3	(X/Y/Z)	random_1__view2_aligned.trc
DataRate	CameraRate	NumFrames	NumMarkers	Units	OrigDataRate	OrigDataStartFrame	OrigNumFrames
100.0	100.0	6	19	mm	100.0	590	1930
Frame#	Time	pelvis			neck			head			hip_left			hip_right			knee_left			knee_right			ankle_left			ankle_right			heel_left			heel_right			toe_left			toe_right			shoulder_left			shoulder_right			elbow_left			elbow_right			wrist_left			wrist_right			
		X1	Y1	Z1	X2	Y2	Z2	X3	Y3	Z3	X4	Y4	Z4	X5	Y5	Z5	X6	Y6	Z6	X7	Y7	Z7	X8	Y8	Z8	X9	Y9	Z9	X10	Y10	Z10	X11	Y11	Z11	X12	Y12	Z12	X13	Y13	Z13	X14	Y14	Z14	X15	Y15	Z15	X16	Y16	Z16	X17	Y17	Z17	X18	Y18	Z18	X19	Y19	Z19	
590	5.89000	137.969887	952.039216	19.311197	103.509874	1548.380145	33.401020	17.946896	1664.219308	-35.025190	92.572342	949.339283	77.232124	183.367059	954.739179	-38.609797	-56.856887	542.261544	8.158938	35.854565	568.963111	-184.373104	-3.693036	141.193635	89.198773	76.332390	160.541360	-181.412370	23.361034	94.395822	114.856545	103.231550	114.498810	-161.416819	-134.329455	82.085602	-34.105813	-69.066891	86.636774	-269.644414	3.111786	1523.038054	143.116549	224.984765	1529.550921	-50.197966	-126.472725	1578.570192	-90.554780	29.667997	1669.578685	-153.936423	-23.270558	1778.619286	-76.240025	32.610658	1838.810555	15.948084
591	5.90000	136.594525	952.087068	20.617873	102.491067	1548.495647	35.381194	17.701975	1664.695459	-33.834064	90.280509	949.352291	77.818514	182.908215	954.821872	-36.582827	-58.053349	542.354423	7.496939	36.467739	569.678532	-184.677372	-4.946327	141.572457	88.899788	75.960761	161.411766	-179.952701	21.972268	94.778535	114.666281	102.426152	115.404174	-159.237839	-135.142487	82.833402	-34.824220	-68.127409	87.417259	-271.216217	-0.292185	1522.897498	143.571132	226.271856	1529.209213	-45.850708	-129.053747	1578.623067	-93.100191	33.472121	1668.174929	-156.261665	-27.749657	1780.191746	-73.338937	35.184369	1839.100846	13.706392
592	5.91000	135.219164	952.134921	21.924549	101.472261	1548.611148	37.361369	17.457054	1665.171610	-32.642937	87.988676	949.365299	78.404903	182.449372	954.904565	-34.555856	-59.249810	542.447301	6.834939	37.080912	570.393952	-184.981641	-6.199617	141.951280	88.600804	75.589132	162.282173	-178.493033	20.583502	95.161248	114.476016	101.620755	116.309538	-157.058858	-135.955520	83.581203	-35.542628	-67.187927	88.197744	-272.788019	-3.696155	1522.756942	144.025715	227.558946	1528.867505	-41.503449	-131.634769	1578.675942	-95.645603	37.276244	1666.771174	-158.586908	-32.228755	1781.764206	-70.437848	37.758080	1839.391136	11.464700
593	5.92000	133.843802	952.182773	23.231225	100.453454	1548.726650	39.341544	17.212133	1665.647761	-31.451811	85.696843	949.378307	78.991293	181.990528	954.987258	-32.528885	-60.446272	542.540180	6.172939	37.694086	571.109372	-185.285909	-7.452908	142.330102	88.301819	75.217503	163.152580	-177.033364	19.194737	95.543960	114.285752	100.815357	117.214902	-154.879878	-136.768553	84.329004	-36.261035	-66.248446	88.978229	-274.359821	-7.100126	1522.616385	144.480298	228.846037	1528.525796	-37.156190	-134.215791	1578.728817	-98.191014	41.080367	1665.367418	-160.912150	-36.707853	1783.336666	-67.536760	40.331791	1839.681426	9.223009
594	5.93000	132.468441	952.230626	24.537901	99.434648	1548.842151	41.321719	16.967211	1666.123912	-30.260684	83.405010	949.391315	79.577682	181.531685	955.069952	-30.501914	-61.642733	542.633059	5.510940	38.307260	571.824793	-185.590177	-8.706198	142.708925	88.002834	74.845874	164.022986	-175.573696	17.805971	95.926673	114.095487	100.009960	118.120266	-152.700897	-137.581586	85.076805	-36.979443	-65.308964	89.758714	-275.931623	-10.504097	1522.475829	144.934882	230.133128	1528.184088	-32.808932	-136.796813	1578.781693	-100.736426	44.884491	1663.963662	-163.237392	-41.186951	1784.909126	-64.635672	42.905502	1839.971716	6.981317
595	5.94000	131.093079	952.278478	25.844577	98.415841	1548.957653	43.301893	16.722290	1666.600063	-29.069558	81.113177	949.404323	80.164072	181.072841	955.152645	-28.474943	-62.839195	542.725938	4.848940	38.920434	572.540213	-185.894445	-9.959489	143.087748	87.703850	74.474246	164.893393	-174.114027	16.417205	96.309386	113.905223	99.204563	119.025630	-150.521916	-138.394619	85.824606	-37.697850	-64.369482	90.539199	-277.503426	-13.908068	1522.335273	145.389465	231.420219	1527.842380	-28.461673	-139.377834	1578.834568	-103.281838	48.688614	1662.559907	-165.562634	-45.666050	1786.481586	-61.734583	45.479213	1840.262007	4.739626
